<svg xmlns="http://www.w3.org/2000/svg" width="28" height="28" viewBox="6 6 28 28" enable-background="new 6 6 28 28"><path fill="#ed4543" id="svg_1" d="m20,11c-4.97,0 -9,4.03 -9,9s4.03,9 9,9s9,-4.030001 9,-9s-4.030001,-9 -9,-9zm0,2.9c1.157,0 2.236,0.33 3.158001,0.89l-8.368001,8.37c-0.56,-0.923 -0.89,-2 -0.89,-3.157999c0,-3.364 2.736,-6.1 6.1,-6.1l0,-0.002001zm0,12.200001c-1.157,0 -2.236,-0.33 -3.158001,-0.890001l8.367001,-8.368c0.559999,0.923 0.890001,2 0.890001,3.158001c0,3.364 -2.736,6.1 -6.1,6.1l0.000999,0z"/></svg>