<svg xmlns="http://www.w3.org/2000/svg" width="24" height="24" viewBox="595 351 24 24" enable-background="new 595 351 24 24"><symbol viewBox="-12 -12 24 24"><path fill="#7FCDFF" d="M12-12h-24v24h24z"/><path fill="#BF667F" d="M-10 7h20V-7h-20z"/><path fill="#BF667F" d="M7 10v-20H-7v20z"/><path fill="#BF667F" d="M9-9H-9V9H9z"/><path fill="#E691A9" d="M9 0c0 4.97-4.03 9-9 9s-9-4.03-9-9 4.03-9 9-9 9 4.03 9 9z"/></symbol><g><path d="M597 360v6h3.057l6.943 5v-16l-6.973 5z"/><path d="M610.07 358.766l7.75 7.567-1.318 1.32-7.75-7.568z"/><path d="M608.672 366.227l7.91-7.377 1.343 1.233-7.91 7.377z"/></g></svg>