<svg xmlns="http://www.w3.org/2000/svg" width="24" height="24" viewBox="372 298 24 24" enable-background="new 372 298 24 24"><symbol viewBox="-12 -12 24 24"><path fill="#7FCDFF" d="M12-12h-24v24h24z"/><path fill="#BF667F" d="M-10 7h20V-7h-20zM7 10v-20H-7v20zM9-9H-9V9H9z"/><path fill="#E691A9" d="M9 0c0 4.97-4.03 9-9 9s-9-4.03-9-9 4.03-9 9-9 9 4.03 9 9z"/></symbol><g><path fill="#fc3" d="M386 303h-5.5c-4.143 0-7.5 3.134-7.5 7 0 1.34.408 2.59 1.11 3.653l2.556-1.152c-.53-.65-.864-1.486-.864-2.5 0-2.516 1.99-4 4.198-4h6v-3zm2 .023V306c2.21 0 4.197 1.578 4.197 4s-1.988 4-4.197 4h-6v3h5.5c4.142 0 7.4-3.134 7.4-7 0-3.708-2.993-6.735-6.9-6.977zM377 315l2-1v6h-2zM379 314.8l-3 1.2v-.727l3-1.273z"/></g></svg>