<?xml version="1.0" encoding="utf-8"?>
<svg version="1.1" id="Layer_1" xmlns="http://www.w3.org/2000/svg" x="0px" y="0px"
width="24px" height="24px" viewBox="0 0 24 24" enable-background="new 0 0 24 24" xml:space="preserve">
<g transform="matrix(0.85,0,0,0.85714286,2.325,1.6431428)">
<path fill="#FFCC33" d="M17.58,16.083c-1.266,0-2.228-0.781-3.097-1.886c-0.504,0.801-1.002,1.619-1.526,2.402
c1.354,1.451,2.921,2.483,4.821,2.483h3.604v-3L17.58,16.083L17.58,16.083z M4.986,5.083H1.382v3h3.802
c1.172,0,2.158,0.802,3.068,1.929c0.515-0.814,1.021-1.648,1.555-2.445C8.451,6.115,6.886,5.083,4.986,5.083z"/>
<path fill="#FFCC33" d="M4.986,19.083H1.382v-3h3.802c2.238,0,3.527-2.443,5.032-4.805
c1.938-3.045,4.239-6.195,7.562-6.195h3.604v3h-3.803c-2.048,0-3.527,2.443-5.032,4.805C10.611,15.934,8.309,19.083,4.986,19.083z
"/>
</g>
</svg>
