<svg xmlns="http://www.w3.org/2000/svg" width="24" height="24" viewBox="595 351 24 24" enable-background="new 595 351 24 24"><symbol viewBox="-12 -12 24 24"><path fill="#7FCDFF" d="M12-12h-24v24h24z"/><path fill="#BF667F" d="M-10 7h20V-7h-20z"/><path fill="#BF667F" d="M7 10v-20H-7v20z"/><path fill="#BF667F" d="M9-9H-9V9H9z"/><path fill="#E691A9" d="M9 0c0 4.97-4.03 9-9 9s-9-4.03-9-9 4.03-9 9-9 9 4.03 9 9z"/></symbol><path d="M610.783 358.006c-.434 0-.783.366-.783.814 0 .18.063.348.153.48.508.746.894 2.246.894 3.693 0 1.446-.386 2.946-.894 3.692-.09.133-.153.3-.153.48 0 .448.35.812.783.812.273 0 .452-.12.655-.37.592-.73 1.56-2.354 1.56-4.617 0-2.265-.968-3.888-1.56-4.616-.203-.246-.38-.368-.655-.368zM597 360v6h3.057l6.943 5v-16l-6.973 5z"/></svg>