<svg width="28" height="28" xmlns="http://www.w3.org/2000/svg">

 <g>
  <title>background</title>
  <rect fill="none" id="canvas_background" height="402" width="582" y="-1" x="-1"/>
 </g>
 <g>
  <title>Layer 1</title>
  <path stroke="null" id="svg_1" d="m14.146341,3.195123c-6.047507,0 -10.951219,4.903713 -10.951219,10.951219s4.903713,10.951219 10.951219,10.951219s10.951219,-4.903713 10.951219,-10.951219s-4.903713,-10.951219 -10.951219,-10.951219zm0,3.528726c1.40784,0 2.72077,0.401545 3.842661,1.082954l-10.1822,10.184634c-0.681409,-1.123108 -1.082954,-2.433604 -1.082954,-3.842661c0,-4.093322 3.329171,-7.422493 7.422493,-7.422493l0,-0.002434zm0,14.844986c-1.40784,0 -2.72077,-0.401545 -3.842661,-1.082954l10.180983,-10.1822c0.681409,1.123108 1.082954,2.433604 1.082954,3.842661c0,4.093322 -3.329171,7.422493 -7.422493,7.422493l0.001217,0z"/>
 </g>
</svg>